<svg xmlns="http://www.w3.org/2000/svg" viewBox="0 0 1000 700" role="img" aria-labelledby="t d"><title id="t">Dashboard de mantenimiento IsiVoltPro</title><desc id="d">Interfaz ilustrada con indicadores, órdenes de trabajo, activos y planificación.</desc><defs><linearGradient id="bg" x1="0" y1="0" x2="1" y2="1"><stop stop-color="#f8faff"/><stop offset="1" stop-color="#eef3ff"/></linearGradient><linearGradient id="a" x1="0" y1="0" x2="1" y2="1"><stop stop-color="#175cff"/><stop offset=".52" stop-color="#6d4aff"/><stop offset="1" stop-color="#f238a9"/></linearGradient><filter id="s"><feDropShadow dx="0" dy="20" stdDeviation="22" flood-color="#253965" flood-opacity=".16"/></filter></defs><rect width="1000" height="700" fill="url(#bg)"/><g transform="translate(55 48)" filter="url(#s)"><rect width="890" height="600" rx="34" fill="#fff"/><rect width="890" height="66" rx="34" fill="#0d1730"/><rect y="38" width="890" height="28" fill="#0d1730"/><circle cx="38" cy="34" r="7" fill="#ff6b86"/><circle cx="62" cy="34" r="7" fill="#ffbd55"/><circle cx="86" cy="34" r="7" fill="#42d79b"/><rect x="120" y="23" width="128" height="22" rx="11" fill="#273858"/><rect x="22" y="88" width="122" height="484" rx="20" fill="#f7f9fc"/><g fill="#dfe6f1"><rect x="42" y="118" width="82" height="38" rx="10"/><rect x="42" y="172" width="82" height="38" rx="10"/><rect x="42" y="226" width="82" height="38" rx="10"/><rect x="42" y="280" width="82" height="38" rx="10"/></g><rect x="42" y="118" width="8" height="38" rx="4" fill="#5d63ff"/><g transform="translate(170 94)"><rect width="204" height="112" rx="20" fill="#eef4ff"/><rect x="22" y="20" width="72" height="11" rx="5" fill="#7391d5"/><rect x="22" y="50" width="80" height="31" rx="9" fill="#26487d"/><path d="M131 76c22-37 44-25 60-54" fill="none" stroke="#175cff" stroke-width="7" stroke-linecap="round"/></g><g transform="translate(392 94)"><rect width="204" height="112" rx="20" fill="#f4f1ff"/><rect x="22" y="20" width="68" height="11" rx="5" fill="#9b83d6"/><circle cx="151" cy="58" r="31" fill="none" stroke="#d7c9ff" stroke-width="13"/><path d="M151 27a31 31 0 0 1 27 46" fill="none" stroke="#6d4aff" stroke-width="13" stroke-linecap="round"/><rect x="22" y="51" width="61" height="29" rx="9" fill="#51407f"/></g><g transform="translate(614 94)"><rect width="204" height="112" rx="20" fill="#ecfaf5"/><rect x="22" y="20" width="72" height="11" rx="5" fill="#6fc8aa"/><rect x="22" y="50" width="61" height="31" rx="9" fill="#17785a"/><g fill="#24c58c"><rect x="124" y="65" width="12" height="21" rx="6"/><rect x="145" y="50" width="12" height="36" rx="6"/><rect x="166" y="34" width="12" height="52" rx="6"/></g></g><rect x="170" y="228" width="648" height="180" rx="24" fill="#fafbfe"/><path d="M198 376c58-38 97-12 151-62s98 11 149-29 105 19 162-28 101 4 129-13" fill="none" stroke="url(#a)" stroke-width="8" stroke-linecap="round"/><g fill="#d7dfec"><rect x="198" y="253" width="92" height="10" rx="5"/><rect x="198" y="279" width="61" height="9" rx="4"/></g><g transform="translate(170 428)"><rect width="648" height="144" rx="24" fill="#fff" stroke="#e6ebf3"/><g fill="#f6f8fc"><rect x="18" y="18" width="612" height="30" rx="9"/><rect x="18" y="57" width="612" height="30" rx="9"/><rect x="18" y="96" width="612" height="30" rx="9"/></g><g fill="#334767"><rect x="36" y="28" width="172" height="10" rx="5"/><rect x="36" y="67" width="204" height="10" rx="5"/><rect x="36" y="106" width="142" height="10" rx="5"/></g><g fill="#24c58c"><rect x="528" y="26" width="72" height="14" rx="7"/><rect x="528" y="104" width="72" height="14" rx="7"/></g><rect x="528" y="65" width="72" height="14" rx="7" fill="#f0a44b"/></g></g></svg>